<svg width="860" height="860" viewBox="0 0 860 860" fill="none" xmlns="http://www.w3.org/2000/svg">
<mask id="mask0" mask-type="alpha" maskUnits="userSpaceOnUse" x="0" y="0" width="860" height="860">
<rect width="860" height="860" fill="#C4C4C4"/>
</mask>
<g mask="url(#mask0)">
<path d="M241.452 261L142.347 313L96.7584 361L82.8837 445L120.544 507L189.917 519L269.202 529L370.289 561L453.538 551L546.697 607L637.873 665L623.999 561L693.372 541L734.997 471L786.531 399L734.997 313L647.784 245L568.5 205L479.305 191L370.289 215H310.826L241.452 261Z" stroke="black"/>
<path d="M628.954 561L656.703 503" stroke="black"/>
<path d="M569.491 207L583.365 317L624.99 377L634.9 441L549.67 507" stroke="black"/>
<path d="M630.936 441L704.274 419L783.558 399" stroke="black"/>
<path d="M264.246 531L299.924 477L387.137 431L502.099 377L517.956 291L460.475 251L476.332 193" stroke="black"/>
<path d="M89.8211 441L149.284 455L258.3 391L303.889 343" stroke="black"/>
<path d="M391.101 429L410.922 477" stroke="black"/>
<path d="M488.224 377L541.741 457" stroke="black"/>
<path d="M309.835 217L377.226 307L351.459 371" stroke="black"/>
<path d="M99.7316 357L210.73 347" stroke="black"/>
<path d="M228.568 269L270.193 291" stroke="black"/>
<path d="M452.546 555L476.332 503" stroke="black"/>
<ellipse cx="84.8658" cy="443" rx="14.8658" ry="15" fill="#524F88"/>
<path d="M326.183 221C326.183 229.012 319.747 235.5 311.817 235.5C303.887 235.5 297.451 229.012 297.451 221C297.451 212.988 303.887 206.5 311.817 206.5C319.747 206.5 326.183 212.988 326.183 221Z" fill="#E4F2F1" stroke="#69AAA4"/>
<ellipse cx="780.585" cy="398" rx="14.8658" ry="15" fill="#C15B9A"/>
<path d="M505.563 376C505.563 384.012 499.127 390.5 491.198 390.5C483.268 390.5 476.832 384.012 476.832 376C476.832 367.988 483.268 361.5 491.198 361.5C499.127 361.5 505.563 367.988 505.563 376Z" fill="#E4F2F1" stroke="#69AAA4"/>
<ellipse cx="374.253" cy="308" rx="14.8658" ry="15" fill="#524F88"/>
<ellipse cx="301.906" cy="473" rx="14.8658" ry="15" fill="#524F88"/>
<ellipse cx="629.945" cy="440" rx="14.8658" ry="15" fill="#524F88"/>
<ellipse cx="639.856" cy="665" rx="14.8658" ry="15" fill="#524F88"/>
<ellipse cx="364.343" cy="559" rx="14.8658" ry="15" fill="#C15B9A"/>
<path d="M113.106 361.5C113.106 368.132 107.78 373.5 101.218 373.5C94.6568 373.5 89.33 368.132 89.33 361.5C89.33 354.868 94.6568 349.5 101.218 349.5C107.78 349.5 113.106 354.868 113.106 361.5Z" fill="#E4F2F1" stroke="#69AAA4"/>
<ellipse cx="451.06" cy="556.5" rx="12.3882" ry="12.5" fill="#69AAA4"/>
<ellipse cx="263.751" cy="531.5" rx="12.3882" ry="12.5" fill="#69AAA4"/>
<path d="M703.774 544.5C703.774 551.132 698.447 556.5 691.886 556.5C685.324 556.5 679.998 551.132 679.998 544.5C679.998 537.868 685.324 532.5 691.886 532.5C698.447 532.5 703.774 537.868 703.774 544.5Z" fill="#E4F2F1" stroke="#69AAA4"/>
<path d="M714.675 418.5C714.675 425.132 709.349 430.5 702.787 430.5C696.226 430.5 690.899 425.132 690.899 418.5C690.899 411.868 696.226 406.5 702.787 406.5C709.349 406.5 714.675 411.868 714.675 418.5Z" fill="#E4F2F1" stroke="#69AAA4"/>
<ellipse cx="727.564" cy="305.5" rx="12.3882" ry="12.5" fill="#668B88"/>
<ellipse cx="126.986" cy="509.5" rx="12.3882" ry="12.5" fill="#69AAA4"/>
<ellipse cx="569.986" cy="208.5" rx="12.3882" ry="12.5" fill="#69AAA4"/>
<ellipse cx="521.425" cy="294.5" rx="12.3882" ry="12.5" fill="#524F88"/>
<ellipse cx="151.762" cy="455.5" rx="12.3882" ry="12.5" fill="#69AAA4"/>
<path d="M261.764 395.5C261.764 402.132 256.438 407.5 249.876 407.5C243.315 407.5 237.988 402.132 237.988 395.5C237.988 388.868 243.315 383.5 249.876 383.5C256.438 383.5 261.764 388.868 261.764 395.5Z" fill="#E4F2F1" stroke="#69AAA4"/>
<ellipse cx="204.288" cy="352.5" rx="12.3882" ry="12.5" fill="#69AAA4"/>
<ellipse cx="351.955" cy="374.5" rx="12.3882" ry="12.5" fill="#69AAA4"/>
<ellipse cx="389.615" cy="428.5" rx="12.3882" ry="12.5" fill="#69AAA4"/>
<ellipse cx="458.988" cy="254.5" rx="12.3882" ry="12.5" fill="#69AAA4"/>
<ellipse cx="627.467" cy="378.5" rx="12.3882" ry="12.5" fill="#69AAA4"/>
<ellipse cx="581.879" cy="317.5" rx="12.3882" ry="12.5" fill="#C15B9A"/>
<path d="M669.587 504.5C669.587 511.404 664.041 517 657.199 517C650.357 517 644.811 511.404 644.811 504.5C644.811 497.596 650.357 492 657.199 492C664.041 492 669.587 497.596 669.587 504.5Z" fill="#69AAA4"/>
<ellipse cx="475.836" cy="193.5" rx="12.3882" ry="12.5" fill="#C15B9A"/>
<ellipse cx="150.771" cy="305.5" rx="12.3882" ry="12.5" fill="#C15B9A"/>
<ellipse cx="196.855" cy="522" rx="4.95526" ry="5" fill="#C15B9A"/>
<ellipse cx="627.963" cy="564" rx="4.95526" ry="5" fill="#69AAA4"/>
<ellipse cx="733.014" cy="476" rx="4.95526" ry="5" fill="#524F88"/>
<ellipse cx="541.741" cy="604" rx="4.95526" ry="5" fill="#C15B9A"/>
<ellipse cx="547.688" cy="509" rx="4.95526" ry="5" fill="#C15B9A"/>
<ellipse cx="270.193" cy="293" rx="4.95526" ry="5" fill="#524F88"/>
<ellipse cx="298.933" cy="347" rx="4.95526" ry="5" fill="#C15B9A"/>
<ellipse cx="476.332" cy="509" rx="4.95526" ry="5" fill="#524F88"/>
<ellipse cx="410.922" cy="483" rx="4.95526" ry="5" fill="#C15B9A"/>
<ellipse cx="542.732" cy="453" rx="4.95526" ry="5" fill="#69AAA4"/>
<ellipse cx="649.766" cy="249" rx="4.95526" ry="5" fill="#C15B9A"/>
<ellipse cx="379.209" cy="216" rx="4.95526" ry="5" fill="#524F88"/>
<ellipse cx="226.586" cy="270" rx="4.95526" ry="5" fill="#69AAA4"/>
</g>
</svg>
