<svg width="32" height="32" viewBox="0 0 32 32" fill="none" xmlns="http://www.w3.org/2000/svg">
<mask id="mask0" mask-type="alpha" maskUnits="userSpaceOnUse" x="0" y="0" width="32" height="32">
<rect width="32" height="32" fill="white"/>
</mask>
<g mask="url(#mask0)">
<path d="M7.56283 5.13034L3.19125 8.465L1.18032 11.5432L0.568298 16.9299L2.2295 20.9059L5.28961 21.6754L8.78688 22.3167L13.2459 24.3688L16.918 23.7275L21.0273 27.3187L25.0492 31.0382L24.4372 24.3688L27.4973 23.0862L29.3333 18.5973L31.6066 13.98L29.3333 8.465L25.4863 4.10428L21.9891 1.53915L18.0546 0.641357L13.2459 2.18044H10.6229L7.56283 5.13034Z" stroke="black"/>
<path d="M24.6558 24.3689L25.8798 20.6494" stroke="black"/>
<path d="M22.0328 1.66724L22.6448 8.72134L24.4809 12.569L24.918 16.6732L21.1584 20.9057" stroke="black"/>
<path d="M24.7432 16.6734L27.9781 15.2625L31.4754 13.98" stroke="black"/>
<path d="M8.5683 22.4449L10.1421 18.982L13.9891 16.0321L19.0601 12.5691L19.7596 7.0541L17.224 4.48897L17.9235 0.769531" stroke="black"/>
<path d="M0.874268 16.6732L3.49722 17.571L8.30596 13.4668L10.3169 10.3887" stroke="black"/>
<path d="M14.1639 15.9038L15.0383 18.982" stroke="black"/>
<path d="M18.4481 12.5693L20.8087 17.6996" stroke="black"/>
<path d="M10.5793 2.30859L13.552 8.08014L12.4154 12.1843" stroke="black"/>
<path d="M1.31146 11.2865L6.20764 10.6453" stroke="black"/>
<path d="M6.99451 5.64331L8.83057 7.05413" stroke="black"/>
<path d="M16.8743 23.9841L17.9234 20.6494" stroke="black"/>
<ellipse cx="0.655738" cy="16.8015" rx="0.655738" ry="0.961924" fill="#524F88"/>
<mask id="path-15-inside-1" fill="white">
<ellipse cx="10.6667" cy="2.5652" rx="0.655737" ry="0.961924"/>
</mask>
<ellipse cx="10.6667" cy="2.5652" rx="0.655737" ry="0.961924" fill="#E4F2F1"/>
<path d="M10.3224 2.5652C10.3224 2.65639 10.2955 2.69471 10.3041 2.68211C10.3092 2.6746 10.4197 2.52712 10.6667 2.52712V4.52712C11.2758 4.52712 11.7142 4.1643 11.9566 3.80864C12.2025 3.4479 12.3224 3.00526 12.3224 2.5652H10.3224ZM10.6667 2.52712C10.9136 2.52712 11.0241 2.6746 11.0293 2.68211C11.0378 2.69471 11.0109 2.65639 11.0109 2.5652H9.01093C9.01093 3.00526 9.1308 3.4479 9.37671 3.80864C9.61916 4.1643 10.0576 4.52712 10.6667 4.52712V2.52712ZM11.0109 2.5652C11.0109 2.474 11.0378 2.43568 11.0293 2.44828C11.0241 2.45579 10.9136 2.60327 10.6667 2.60327V0.603271C10.0576 0.603271 9.61916 0.966088 9.37671 1.32175C9.1308 1.68249 9.01093 2.12513 9.01093 2.5652H11.0109ZM10.6667 2.60327C10.4197 2.60327 10.3092 2.45579 10.3041 2.44828C10.2955 2.43568 10.3224 2.474 10.3224 2.5652H12.3224C12.3224 2.12513 12.2025 1.68249 11.9566 1.32175C11.7142 0.966088 11.2758 0.603271 10.6667 0.603271V2.60327Z" fill="#69AAA4" mask="url(#path-15-inside-1)"/>
<ellipse cx="31.3443" cy="13.916" rx="0.655737" ry="0.961924" fill="#C15B9A"/>
<mask id="path-18-inside-2" fill="white">
<ellipse cx="18.5793" cy="12.5049" rx="0.65574" ry="0.961924"/>
</mask>
<ellipse cx="18.5793" cy="12.5049" rx="0.65574" ry="0.961924" fill="#E4F2F1"/>
<path d="M18.235 12.5049C18.235 12.5961 18.2081 12.6344 18.2167 12.6218C18.2218 12.6143 18.3323 12.4668 18.5793 12.4668V14.4668C19.1883 14.4668 19.6268 14.104 19.8692 13.7483C20.1151 13.3876 20.235 12.945 20.235 12.5049H18.235ZM18.5793 12.4668C18.8262 12.4668 18.9367 12.6143 18.9419 12.6218C18.9504 12.6344 18.9235 12.5961 18.9235 12.5049H16.9235C16.9235 12.945 17.0434 13.3876 17.2893 13.7483C17.5318 14.104 17.9702 14.4668 18.5793 14.4668V12.4668ZM18.9235 12.5049C18.9235 12.4137 18.9504 12.3754 18.9419 12.388C18.9367 12.3955 18.8262 12.543 18.5793 12.543V10.543C17.9702 10.543 17.5318 10.9058 17.2893 11.2614C17.0434 11.6222 16.9235 12.0648 16.9235 12.5049H18.9235ZM18.5793 12.543C18.3323 12.543 18.2218 12.3955 18.2167 12.388C18.2081 12.3754 18.235 12.4137 18.235 12.5049H20.235C20.235 12.0648 20.1151 11.6222 19.8692 11.2614C19.6268 10.9058 19.1883 10.543 18.5793 10.543V12.543Z" fill="#69AAA4" mask="url(#path-18-inside-2)"/>
<ellipse cx="13.4208" cy="8.1443" rx="0.655737" ry="0.961924" fill="#524F88"/>
<ellipse cx="10.2295" cy="18.7254" rx="0.655737" ry="0.961924" fill="#524F88"/>
<ellipse cx="24.6994" cy="16.6094" rx="0.655737" ry="0.961924" fill="#524F88"/>
<ellipse cx="25.1366" cy="31.0381" rx="0.655737" ry="0.961924" fill="#524F88"/>
<ellipse cx="12.9836" cy="24.2405" rx="0.655737" ry="0.961924" fill="#C15B9A"/>
<mask id="path-25-inside-3" fill="white">
<ellipse cx="1.37708" cy="11.5753" rx="0.546448" ry="0.801603"/>
</mask>
<ellipse cx="1.37708" cy="11.5753" rx="0.546448" ry="0.801603" fill="#E4F2F1"/>
<path d="M0.923523 11.5753C0.923523 11.6222 0.908833 11.6204 0.937197 11.5788C0.962093 11.5423 1.09996 11.3769 1.37708 11.3769V13.3769C1.95598 13.3769 2.36708 13.032 2.58975 12.7054C2.81589 12.3736 2.92352 11.9711 2.92352 11.5753H0.923523ZM1.37708 11.3769C1.65419 11.3769 1.79206 11.5423 1.81695 11.5788C1.84532 11.6204 1.83063 11.6222 1.83063 11.5753H-0.169373C-0.169373 11.9711 -0.0617355 12.3736 0.164403 12.7054C0.387075 13.032 0.798166 13.3769 1.37708 13.3769V11.3769ZM1.83063 11.5753C1.83063 11.5284 1.84532 11.5301 1.81695 11.5717C1.79206 11.6083 1.65419 11.7737 1.37708 11.7737V9.77368C0.798166 9.77368 0.387075 10.1186 0.164403 10.4452C-0.0617355 10.7769 -0.169373 11.1795 -0.169373 11.5753H1.83063ZM1.37708 11.7737C1.09996 11.7737 0.962093 11.6083 0.937197 11.5717C0.908833 11.5301 0.923523 11.5284 0.923523 11.5753H2.92352C2.92352 11.1795 2.81589 10.7769 2.58975 10.4452C2.36708 10.1186 1.95598 9.77368 1.37708 9.77368V11.7737Z" fill="#69AAA4" mask="url(#path-25-inside-3)"/>
<ellipse cx="16.8088" cy="24.0802" rx="0.546448" ry="0.801603" fill="#69AAA4"/>
<ellipse cx="8.54645" cy="22.4769" rx="0.546449" ry="0.801603" fill="#69AAA4"/>
<mask id="path-29-inside-4" fill="white">
<ellipse cx="27.4317" cy="23.3106" rx="0.546448" ry="0.801603"/>
</mask>
<ellipse cx="27.4317" cy="23.3106" rx="0.546448" ry="0.801603" fill="#E4F2F1"/>
<path d="M26.9781 23.3106C26.9781 23.3576 26.9635 23.3558 26.9918 23.3142C27.0167 23.2777 27.1546 23.1122 27.4317 23.1122V25.1122C28.0106 25.1122 28.4217 24.7674 28.6444 24.4407C28.8705 24.109 28.9781 23.7064 28.9781 23.3106H26.9781ZM27.4317 23.1122C27.7088 23.1122 27.8467 23.2777 27.8716 23.3142C27.8999 23.3558 27.8853 23.3576 27.8853 23.3106H25.8853C25.8853 23.7064 25.9929 24.109 26.219 24.4407C26.4417 24.7674 26.8528 25.1122 27.4317 25.1122V23.1122ZM27.8853 23.3106C27.8853 23.2637 27.8999 23.2655 27.8716 23.3071C27.8467 23.3436 27.7088 23.509 27.4317 23.509V21.509C26.8528 21.509 26.4417 21.8539 26.219 22.1806C25.9929 22.5123 25.8853 22.9148 25.8853 23.3106H27.8853ZM27.4317 23.509C27.1546 23.509 27.0167 23.3436 26.9918 23.3071C26.9635 23.2655 26.9781 23.2637 26.9781 23.3106H28.9781C28.9781 22.9148 28.8705 22.5123 28.6444 22.1806C28.4217 21.8539 28.0106 21.509 27.4317 21.509V23.509Z" fill="#69AAA4" mask="url(#path-29-inside-4)"/>
<mask id="path-31-inside-5" fill="white">
<ellipse cx="27.9125" cy="15.2303" rx="0.546448" ry="0.801603"/>
</mask>
<ellipse cx="27.9125" cy="15.2303" rx="0.546448" ry="0.801603" fill="#E4F2F1"/>
<path d="M27.459 15.2303C27.459 15.2772 27.4443 15.2755 27.4727 15.2339C27.4976 15.1973 27.6354 15.0319 27.9125 15.0319V17.0319C28.4914 17.0319 28.9025 16.687 29.1252 16.3604C29.3513 16.0287 29.459 15.6261 29.459 15.2303H27.459ZM27.9125 15.0319C28.1897 15.0319 28.3275 15.1973 28.3524 15.2339C28.3808 15.2755 28.3661 15.2772 28.3661 15.2303H26.3661C26.3661 15.6261 26.4737 16.0287 26.6999 16.3604C26.9225 16.687 27.3336 17.0319 27.9125 17.0319V15.0319ZM28.3661 15.2303C28.3661 15.1834 28.3808 15.1852 28.3524 15.2268C28.3275 15.2633 28.1897 15.4287 27.9125 15.4287V13.4287C27.3336 13.4287 26.9225 13.7736 26.6999 14.1002C26.4737 14.432 26.3661 14.8345 26.3661 15.2303H28.3661ZM27.9125 15.4287C27.6354 15.4287 27.4976 15.2633 27.4727 15.2268C27.4443 15.1852 27.459 15.1834 27.459 15.2303H29.459C29.459 14.8345 29.3513 14.432 29.1252 14.1002C28.9025 13.7736 28.4914 13.4287 27.9125 13.4287V15.4287Z" fill="#69AAA4" mask="url(#path-31-inside-5)"/>
<ellipse cx="29.0055" cy="7.98398" rx="0.546448" ry="0.801603" fill="#668B88"/>
<ellipse cx="2.51367" cy="21.0663" rx="0.546449" ry="0.801603" fill="#69AAA4"/>
<ellipse cx="22.0546" cy="1.76352" rx="0.546448" ry="0.801603" fill="#69AAA4"/>
<ellipse cx="19.9125" cy="7.27865" rx="0.546449" ry="0.801603" fill="#524F88"/>
<ellipse cx="3.60657" cy="17.6034" rx="0.546448" ry="0.801603" fill="#69AAA4"/>
<mask id="path-38-inside-6" fill="white">
<ellipse cx="7.93439" cy="13.7557" rx="0.546448" ry="0.801603"/>
</mask>
<ellipse cx="7.93439" cy="13.7557" rx="0.546448" ry="0.801603" fill="#E4F2F1"/>
<path d="M7.48084 13.7557C7.48084 13.8026 7.46615 13.8009 7.49451 13.7593C7.51941 13.7227 7.65727 13.5573 7.93439 13.5573V15.5573C8.5133 15.5573 8.92439 15.2124 9.14706 14.8858C9.3732 14.5541 9.48084 14.1515 9.48084 13.7557H7.48084ZM7.93439 13.5573C8.2115 13.5573 8.34937 13.7227 8.37427 13.7593C8.40263 13.8009 8.38794 13.8026 8.38794 13.7557H6.38794C6.38794 14.1515 6.49558 14.5541 6.72172 14.8858C6.94439 15.2124 7.35548 15.5573 7.93439 15.5573V13.5573ZM8.38794 13.7557C8.38794 13.7088 8.40263 13.7105 8.37427 13.7522C8.34937 13.7887 8.2115 13.9541 7.93439 13.9541V11.9541C7.35548 11.9541 6.94439 12.299 6.72172 12.6256C6.49558 12.9573 6.38794 13.3599 6.38794 13.7557H8.38794ZM7.93439 13.9541C7.65727 13.9541 7.51941 13.7887 7.49451 13.7522C7.46615 13.7105 7.48084 13.7088 7.48084 13.7557H9.48084C9.48084 13.3599 9.3732 12.9573 9.14706 12.6256C8.92439 12.299 8.5133 11.9541 7.93439 11.9541V13.9541Z" fill="#69AAA4" mask="url(#path-38-inside-6)"/>
<ellipse cx="5.92352" cy="10.9979" rx="0.546448" ry="0.801603" fill="#69AAA4"/>
<ellipse cx="12.4372" cy="12.4088" rx="0.546448" ry="0.801603" fill="#69AAA4"/>
<ellipse cx="14.0984" cy="15.8717" rx="0.546448" ry="0.801603" fill="#69AAA4"/>
<ellipse cx="17.1585" cy="4.71347" rx="0.546448" ry="0.801603" fill="#69AAA4"/>
<ellipse cx="24.5901" cy="12.6654" rx="0.546448" ry="0.801603" fill="#69AAA4"/>
<ellipse cx="22.5792" cy="8.75351" rx="0.546449" ry="0.801603" fill="#C15B9A"/>
<path d="M26.4481 20.7455C26.4481 21.1882 26.2035 21.5471 25.9017 21.5471C25.5999 21.5471 25.3552 21.1882 25.3552 20.7455C25.3552 20.3027 25.5999 19.9438 25.9017 19.9438C26.2035 19.9438 26.4481 20.3027 26.4481 20.7455Z" fill="#69AAA4"/>
<ellipse cx="17.9017" cy="0.801603" rx="0.546448" ry="0.801603" fill="#C15B9A"/>
<ellipse cx="3.56281" cy="7.98398" rx="0.546448" ry="0.801603" fill="#C15B9A"/>
<ellipse cx="5.59565" cy="21.8678" rx="0.218579" ry="0.320641" fill="#C15B9A"/>
<ellipse cx="24.612" cy="24.5611" rx="0.218579" ry="0.320641" fill="#69AAA4"/>
<ellipse cx="29.2459" cy="18.9178" rx="0.218579" ry="0.320641" fill="#524F88"/>
<ellipse cx="20.8087" cy="27.1263" rx="0.218579" ry="0.320641" fill="#C15B9A"/>
<ellipse cx="21.071" cy="21.034" rx="0.218579" ry="0.320641" fill="#C15B9A"/>
<ellipse cx="8.83064" cy="7.18246" rx="0.218579" ry="0.320641" fill="#524F88"/>
<ellipse cx="10.0983" cy="10.6453" rx="0.218579" ry="0.320641" fill="#C15B9A"/>
<ellipse cx="17.9235" cy="21.034" rx="0.218579" ry="0.320641" fill="#524F88"/>
<ellipse cx="15.0382" cy="19.3665" rx="0.218579" ry="0.320641" fill="#C15B9A"/>
<ellipse cx="20.8525" cy="17.4427" rx="0.218579" ry="0.320641" fill="#69AAA4"/>
<ellipse cx="25.5738" cy="4.36068" rx="0.218579" ry="0.320641" fill="#C15B9A"/>
<ellipse cx="13.6393" cy="2.24447" rx="0.218579" ry="0.320641" fill="#524F88"/>
<ellipse cx="6.90712" cy="5.70736" rx="0.218579" ry="0.320641" fill="#69AAA4"/>
</g>
</svg>
