<svg width="860" height="665" viewBox="0 0 860 665" fill="none" xmlns="http://www.w3.org/2000/svg">
<mask id="mask0" mask-type="alpha" maskUnits="userSpaceOnUse" x="0" y="0" width="860" height="665">
<rect width="860" height="665" fill="#C4C4C4"/>
</mask>
<g mask="url(#mask0)">
<path d="M238.452 104L139.347 156L93.7584 204L79.8837 288L117.544 350L186.917 362L266.202 372L367.289 404L450.538 394L543.697 450L634.873 508L620.999 404L690.372 384L731.997 314L783.531 242L731.997 156L644.784 88L565.5 48L476.305 34L367.289 58H307.826L238.452 104Z" stroke="black"/>
<path d="M625.954 404L653.703 346" stroke="black"/>
<path d="M566.491 50L580.365 160L621.99 220L631.9 284L546.67 350" stroke="black"/>
<path d="M627.936 284L701.274 262L780.558 242" stroke="black"/>
<path d="M261.246 374L296.924 320L384.137 274L499.099 220L514.956 134L457.475 94L473.332 36" stroke="black"/>
<path d="M86.8211 284L146.284 298L255.3 234L300.889 186" stroke="black"/>
<path d="M388.101 272L407.922 320" stroke="black"/>
<path d="M485.224 220L538.741 300" stroke="black"/>
<path d="M306.835 60L374.226 150L348.459 214" stroke="black"/>
<path d="M96.7316 200L207.73 190" stroke="black"/>
<path d="M225.568 112L267.193 134" stroke="black"/>
<path d="M449.546 398L473.332 346" stroke="black"/>
<ellipse cx="81.8658" cy="286" rx="14.8658" ry="15" fill="#524F88"/>
<path d="M323.183 64C323.183 72.0124 316.747 78.5 308.817 78.5C300.887 78.5 294.451 72.0124 294.451 64C294.451 55.9876 300.887 49.5 308.817 49.5C316.747 49.5 323.183 55.9876 323.183 64Z" fill="#E4F2F1" stroke="#69AAA4"/>
<ellipse cx="777.585" cy="241" rx="14.8658" ry="15" fill="#C15B9A"/>
<path d="M502.563 219C502.563 227.012 496.127 233.5 488.198 233.5C480.268 233.5 473.832 227.012 473.832 219C473.832 210.988 480.268 204.5 488.198 204.5C496.127 204.5 502.563 210.988 502.563 219Z" fill="#E4F2F1" stroke="#69AAA4"/>
<ellipse cx="371.253" cy="151" rx="14.8658" ry="15" fill="#524F88"/>
<ellipse cx="298.906" cy="316" rx="14.8658" ry="15" fill="#524F88"/>
<ellipse cx="626.945" cy="283" rx="14.8658" ry="15" fill="#524F88"/>
<ellipse cx="636.856" cy="508" rx="14.8658" ry="15" fill="#524F88"/>
<ellipse cx="361.343" cy="402" rx="14.8658" ry="15" fill="#C15B9A"/>
<path d="M110.106 204.5C110.106 211.132 104.78 216.5 98.2182 216.5C91.6568 216.5 86.33 211.132 86.33 204.5C86.33 197.868 91.6568 192.5 98.2182 192.5C104.78 192.5 110.106 197.868 110.106 204.5Z" fill="#E4F2F1" stroke="#69AAA4"/>
<ellipse cx="448.06" cy="399.5" rx="12.3882" ry="12.5" fill="#69AAA4"/>
<ellipse cx="260.751" cy="374.5" rx="12.3882" ry="12.5" fill="#69AAA4"/>
<path d="M700.774 387.5C700.774 394.132 695.447 399.5 688.886 399.5C682.324 399.5 676.998 394.132 676.998 387.5C676.998 380.868 682.324 375.5 688.886 375.5C695.447 375.5 700.774 380.868 700.774 387.5Z" fill="#E4F2F1" stroke="#69AAA4"/>
<path d="M711.675 261.5C711.675 268.132 706.349 273.5 699.787 273.5C693.226 273.5 687.899 268.132 687.899 261.5C687.899 254.868 693.226 249.5 699.787 249.5C706.349 249.5 711.675 254.868 711.675 261.5Z" fill="#E4F2F1" stroke="#69AAA4"/>
<ellipse cx="724.564" cy="148.5" rx="12.3882" ry="12.5" fill="#668B88"/>
<ellipse cx="123.986" cy="352.5" rx="12.3882" ry="12.5" fill="#69AAA4"/>
<ellipse cx="566.986" cy="51.5" rx="12.3882" ry="12.5" fill="#69AAA4"/>
<ellipse cx="518.425" cy="137.5" rx="12.3882" ry="12.5" fill="#524F88"/>
<ellipse cx="148.762" cy="298.5" rx="12.3882" ry="12.5" fill="#69AAA4"/>
<path d="M258.764 238.5C258.764 245.132 253.438 250.5 246.876 250.5C240.315 250.5 234.988 245.132 234.988 238.5C234.988 231.868 240.315 226.5 246.876 226.5C253.438 226.5 258.764 231.868 258.764 238.5Z" fill="#E4F2F1" stroke="#69AAA4"/>
<ellipse cx="201.288" cy="195.5" rx="12.3882" ry="12.5" fill="#69AAA4"/>
<ellipse cx="348.955" cy="217.5" rx="12.3882" ry="12.5" fill="#69AAA4"/>
<ellipse cx="386.615" cy="271.5" rx="12.3882" ry="12.5" fill="#69AAA4"/>
<ellipse cx="455.988" cy="97.5" rx="12.3882" ry="12.5" fill="#69AAA4"/>
<ellipse cx="624.467" cy="221.5" rx="12.3882" ry="12.5" fill="#69AAA4"/>
<ellipse cx="578.879" cy="160.5" rx="12.3882" ry="12.5" fill="#C15B9A"/>
<path d="M666.587 347.5C666.587 354.404 661.041 360 654.199 360C647.357 360 641.811 354.404 641.811 347.5C641.811 340.596 647.357 335 654.199 335C661.041 335 666.587 340.596 666.587 347.5Z" fill="#69AAA4"/>
<ellipse cx="472.836" cy="36.5" rx="12.3882" ry="12.5" fill="#C15B9A"/>
<ellipse cx="147.771" cy="148.5" rx="12.3882" ry="12.5" fill="#C15B9A"/>
<ellipse cx="193.855" cy="365" rx="4.95526" ry="5" fill="#C15B9A"/>
<ellipse cx="624.963" cy="407" rx="4.95526" ry="5" fill="#69AAA4"/>
<ellipse cx="730.014" cy="319" rx="4.95526" ry="5" fill="#524F88"/>
<ellipse cx="538.741" cy="447" rx="4.95526" ry="5" fill="#C15B9A"/>
<ellipse cx="544.688" cy="352" rx="4.95526" ry="5" fill="#C15B9A"/>
<ellipse cx="267.193" cy="136" rx="4.95526" ry="5" fill="#524F88"/>
<ellipse cx="295.933" cy="190" rx="4.95526" ry="5" fill="#C15B9A"/>
<ellipse cx="473.332" cy="352" rx="4.95526" ry="5" fill="#524F88"/>
<ellipse cx="407.922" cy="326" rx="4.95526" ry="5" fill="#C15B9A"/>
<ellipse cx="539.732" cy="296" rx="4.95526" ry="5" fill="#69AAA4"/>
<ellipse cx="646.766" cy="92" rx="4.95526" ry="5" fill="#C15B9A"/>
<ellipse cx="376.209" cy="59" rx="4.95526" ry="5" fill="#524F88"/>
<ellipse cx="223.586" cy="113" rx="4.95526" ry="5" fill="#69AAA4"/>
<path d="M27.832 581.617H17.4805V609H16.4258V581.617H6.07422V580.562H27.832V581.617ZM53.0859 609H52.0312V594.898H33.8672V609H32.8125V580.562H33.8672V593.844H52.0312V580.562H53.0859V609ZM76.2109 594.898H61.9531V607.945H78.2031V609H60.8984V580.562H78.2031V581.617H61.9531V593.844H76.2109V594.898ZM112.578 600.289C112.305 603.219 111.296 605.471 109.551 607.047C107.806 608.609 105.436 609.391 102.441 609.391C100.423 609.391 98.6328 608.883 97.0703 607.867C95.5208 606.839 94.3164 605.387 93.457 603.512C92.5977 601.624 92.1615 599.469 92.1484 597.047V592.652C92.1484 590.23 92.5716 588.069 93.418 586.168C94.2643 584.254 95.4688 582.776 97.0312 581.734C98.6068 580.693 100.41 580.172 102.441 580.172C105.41 580.172 107.773 580.953 109.531 582.516C111.289 584.078 112.305 586.318 112.578 589.234H111.523C111.224 586.617 110.312 584.632 108.789 583.277C107.266 581.91 105.15 581.227 102.441 581.227C99.681 581.227 97.4479 582.268 95.7422 584.352C94.0495 586.435 93.2031 589.228 93.2031 592.73V596.91C93.2031 599.15 93.5807 601.135 94.3359 602.867C95.0911 604.586 96.1719 605.927 97.5781 606.891C98.9974 607.854 100.618 608.336 102.441 608.336C105.163 608.336 107.285 607.665 108.809 606.324C110.345 604.983 111.25 602.971 111.523 600.289H112.578ZM139.316 596.91C139.316 599.371 138.874 601.552 137.988 603.453C137.116 605.341 135.866 606.806 134.238 607.848C132.611 608.876 130.736 609.391 128.613 609.391C125.41 609.391 122.819 608.251 120.84 605.973C118.861 603.694 117.871 600.621 117.871 596.754V592.652C117.871 590.204 118.307 588.03 119.18 586.129C120.065 584.228 121.322 582.763 122.949 581.734C124.59 580.693 126.465 580.172 128.574 580.172C130.697 580.172 132.572 580.693 134.199 581.734C135.84 582.763 137.103 584.234 137.988 586.148C138.874 588.049 139.316 590.217 139.316 592.652V596.91ZM138.262 592.613C138.262 589.176 137.389 586.422 135.645 584.352C133.9 582.268 131.543 581.227 128.574 581.227C125.645 581.227 123.307 582.262 121.562 584.332C119.818 586.389 118.945 589.195 118.945 592.75V596.91C118.945 599.176 119.336 601.181 120.117 602.926C120.911 604.658 122.038 605.992 123.496 606.93C124.954 607.867 126.66 608.336 128.613 608.336C131.582 608.336 133.932 607.301 135.664 605.23C137.396 603.16 138.262 600.335 138.262 596.754V592.613ZM147.324 580.562L159.023 607.457L170.762 580.562H172.305V609H171.25V582.125L159.453 609H158.613L146.875 582.262V609H145.82V580.562H147.324ZM181.172 596.988V609H180.117V580.562H189.004C191.908 580.562 194.16 581.298 195.762 582.77C197.376 584.228 198.184 586.259 198.184 588.863C198.184 591.441 197.396 593.434 195.82 594.84C194.258 596.246 192.031 596.962 189.141 596.988H181.172ZM181.172 595.934H189.004C191.569 595.934 193.561 595.315 194.98 594.078C196.413 592.841 197.129 591.116 197.129 588.902C197.129 586.611 196.413 584.827 194.98 583.551C193.561 582.262 191.569 581.617 189.004 581.617H181.172V595.934ZM223.281 580.562V599.82C223.281 602.828 222.409 605.178 220.664 606.871C218.919 608.551 216.556 609.391 213.574 609.391C210.592 609.391 208.229 608.551 206.484 606.871C204.74 605.178 203.861 602.854 203.848 599.898V580.562H204.902V599.781C204.902 602.411 205.69 604.495 207.266 606.031C208.854 607.568 210.957 608.336 213.574 608.336C216.191 608.336 218.288 607.568 219.863 606.031C221.439 604.495 222.227 602.405 222.227 599.762V580.562H223.281ZM249.746 581.617H239.395V609H238.34V581.617H227.988V580.562H249.746V581.617ZM256.562 609H255.508V580.562H256.562V609ZM285.293 596.91C285.293 599.371 284.85 601.552 283.965 603.453C283.092 605.341 281.842 606.806 280.215 607.848C278.587 608.876 276.712 609.391 274.59 609.391C271.387 609.391 268.796 608.251 266.816 605.973C264.837 603.694 263.848 600.621 263.848 596.754V592.652C263.848 590.204 264.284 588.03 265.156 586.129C266.042 584.228 267.298 582.763 268.926 581.734C270.566 580.693 272.441 580.172 274.551 580.172C276.673 580.172 278.548 580.693 280.176 581.734C281.816 582.763 283.079 584.234 283.965 586.148C284.85 588.049 285.293 590.217 285.293 592.652V596.91ZM284.238 592.613C284.238 589.176 283.366 586.422 281.621 584.352C279.876 582.268 277.52 581.227 274.551 581.227C271.621 581.227 269.284 582.262 267.539 584.332C265.794 586.389 264.922 589.195 264.922 592.75V596.91C264.922 599.176 265.312 601.181 266.094 602.926C266.888 604.658 268.014 605.992 269.473 606.93C270.931 607.867 272.637 608.336 274.59 608.336C277.559 608.336 279.909 607.301 281.641 605.23C283.372 603.16 284.238 600.335 284.238 596.754V592.613ZM312.285 609H311.23L292.871 582.359V609H291.797V580.562H292.871L311.23 607.145V580.562H312.285V609ZM335.449 600.504H321.523L318.359 609H317.207L327.852 580.562H329.141L339.785 609H338.633L335.449 600.504ZM321.914 599.449H335.059L328.496 581.832L321.914 599.449ZM345.449 607.945H360.039V609H344.375V580.562H345.449V607.945ZM375.684 607.945H390.273V609H374.609V580.562H375.684V607.945ZM397.109 609H396.055V580.562H397.109V609ZM407.207 580.562L418.906 607.457L430.645 580.562H432.188V609H431.133V582.125L419.336 609H418.496L406.758 582.262V609H405.703V580.562H407.207ZM441.836 609H440.781V580.562H441.836V609ZM468.77 581.617H458.418V609H457.363V581.617H447.012V580.562H468.77V581.617ZM490.469 602.184C490.469 600.973 490.182 599.951 489.609 599.117C489.049 598.271 488.158 597.529 486.934 596.891C485.723 596.24 483.887 595.576 481.426 594.898C478.965 594.221 477.116 593.538 475.879 592.848C474.655 592.158 473.757 591.357 473.184 590.445C472.611 589.534 472.324 588.427 472.324 587.125C472.324 585.055 473.197 583.382 474.941 582.105C476.686 580.816 478.958 580.172 481.758 580.172C483.581 580.172 485.215 580.53 486.66 581.246C488.118 581.949 489.245 582.945 490.039 584.234C490.833 585.51 491.23 586.956 491.23 588.57H490.176C490.176 586.448 489.395 584.697 487.832 583.316C486.27 581.923 484.245 581.227 481.758 581.227C479.258 581.227 477.233 581.786 475.684 582.906C474.147 584.013 473.379 585.406 473.379 587.086C473.379 588.792 474.049 590.165 475.391 591.207C476.732 592.249 478.945 593.173 482.031 593.98C485.117 594.775 487.376 595.699 488.809 596.754C490.632 598.095 491.543 599.892 491.543 602.145C491.543 603.577 491.139 604.846 490.332 605.953C489.525 607.047 488.379 607.893 486.895 608.492C485.41 609.091 483.743 609.391 481.895 609.391C479.837 609.391 477.988 609.052 476.348 608.375C474.707 607.685 473.47 606.708 472.637 605.445C471.816 604.182 471.406 602.691 471.406 600.973H472.461C472.461 603.303 473.333 605.113 475.078 606.402C476.823 607.691 479.095 608.336 481.895 608.336C484.382 608.336 486.432 607.77 488.047 606.637C489.661 605.491 490.469 604.007 490.469 602.184ZM526.816 596.91C526.816 599.371 526.374 601.552 525.488 603.453C524.616 605.341 523.366 606.806 521.738 607.848C520.111 608.876 518.236 609.391 516.113 609.391C512.91 609.391 510.319 608.251 508.34 605.973C506.361 603.694 505.371 600.621 505.371 596.754V592.652C505.371 590.204 505.807 588.03 506.68 586.129C507.565 584.228 508.822 582.763 510.449 581.734C512.09 580.693 513.965 580.172 516.074 580.172C518.197 580.172 520.072 580.693 521.699 581.734C523.34 582.763 524.603 584.234 525.488 586.148C526.374 588.049 526.816 590.217 526.816 592.652V596.91ZM525.762 592.613C525.762 589.176 524.889 586.422 523.145 584.352C521.4 582.268 519.043 581.227 516.074 581.227C513.145 581.227 510.807 582.262 509.062 584.332C507.318 586.389 506.445 589.195 506.445 592.75V596.91C506.445 599.176 506.836 601.181 507.617 602.926C508.411 604.658 509.538 605.992 510.996 606.93C512.454 607.867 514.16 608.336 516.113 608.336C519.082 608.336 521.432 607.301 523.164 605.23C524.896 603.16 525.762 600.335 525.762 596.754V592.613ZM548.945 595.016H534.375V609H533.32V580.562H550.938V581.617H534.375V593.922H548.945V595.016ZM565.781 609V580.562H573.652C575.853 580.562 577.845 581.083 579.629 582.125C581.413 583.167 582.812 584.632 583.828 586.52C584.844 588.395 585.365 590.497 585.391 592.828V596.52C585.391 598.889 584.889 601.025 583.887 602.926C582.897 604.827 581.51 606.311 579.727 607.379C577.943 608.447 575.951 608.987 573.75 609H565.781ZM566.836 581.617V607.945H573.652C575.645 607.945 577.454 607.464 579.082 606.5C580.723 605.523 582.005 604.169 582.93 602.438C583.854 600.693 584.323 598.759 584.336 596.637V592.984C584.336 590.862 583.88 588.935 582.969 587.203C582.07 585.471 580.807 584.117 579.18 583.141C577.565 582.151 575.775 581.643 573.809 581.617H566.836ZM607.266 594.898H593.008V607.945H609.258V609H591.953V580.562H609.258V581.617H593.008V593.844H607.266V594.898ZM630.039 594.898H615.781V607.945H632.031V609H614.727V580.562H632.031V581.617H615.781V593.844H630.039V594.898ZM638.555 596.988V609H637.5V580.562H646.387C649.29 580.562 651.543 581.298 653.145 582.77C654.759 584.228 655.566 586.259 655.566 588.863C655.566 591.441 654.779 593.434 653.203 594.84C651.641 596.246 649.414 596.962 646.523 596.988H638.555ZM638.555 595.934H646.387C648.952 595.934 650.944 595.315 652.363 594.078C653.796 592.841 654.512 591.116 654.512 588.902C654.512 586.611 653.796 584.827 652.363 583.551C650.944 582.262 648.952 581.617 646.387 581.617H638.555V595.934ZM672.168 607.945H686.758V609H671.094V580.562H672.168V607.945ZM707.07 594.898H692.812V607.945H709.062V609H691.758V580.562H709.062V581.617H692.812V593.844H707.07V594.898ZM729.512 600.504H715.586L712.422 609H711.27L721.914 580.562H723.203L733.848 609H732.695L729.512 600.504ZM715.977 599.449H729.121L722.559 581.832L715.977 599.449ZM749.258 596.832H739.395V609H738.34V580.562H747.402C750.254 580.562 752.52 581.298 754.199 582.77C755.892 584.241 756.738 586.24 756.738 588.766C756.738 590.706 756.133 592.405 754.922 593.863C753.724 595.309 752.194 596.207 750.332 596.559L757.93 608.727V609H756.816L749.258 596.832ZM739.395 595.777H748.359C750.547 595.777 752.311 595.113 753.652 593.785C755.007 592.457 755.684 590.784 755.684 588.766C755.684 586.552 754.935 584.807 753.438 583.531C751.953 582.255 749.915 581.617 747.324 581.617H739.395V595.777ZM785.098 609H784.043L765.684 582.359V609H764.609V580.562H765.684L784.043 607.145V580.562H785.098V609ZM794.766 609H793.711V580.562H794.766V609ZM823.848 609H822.793L804.434 582.359V609H803.359V580.562H804.434L822.793 607.145V580.562H823.848V609ZM851.719 605.953C851.003 606.943 849.746 607.763 847.949 608.414C846.152 609.065 844.173 609.391 842.012 609.391C839.902 609.391 838.021 608.876 836.367 607.848C834.714 606.819 833.418 605.367 832.48 603.492C831.556 601.617 831.081 599.495 831.055 597.125V592.242C831.055 589.911 831.504 587.822 832.402 585.973C833.301 584.124 834.564 582.698 836.191 581.695C837.819 580.68 839.648 580.172 841.68 580.172C844.505 580.172 846.803 580.895 848.574 582.34C850.358 583.785 851.393 585.758 851.68 588.258H850.625C850.273 585.992 849.329 584.254 847.793 583.043C846.257 581.832 844.219 581.227 841.68 581.227C838.815 581.227 836.504 582.249 834.746 584.293C832.988 586.337 832.109 589.026 832.109 592.359V596.891C832.109 599.117 832.52 601.103 833.34 602.848C834.173 604.592 835.339 605.947 836.836 606.91C838.346 607.861 840.072 608.336 842.012 608.336C843.913 608.336 845.677 608.056 847.305 607.496C848.932 606.936 850.052 606.259 850.664 605.465V597.184H841.973V596.109H851.719V605.953Z" fill="#201D49"/>
</g>
</svg>
