<svg width="1251" height="234" viewBox="0 0 1251 234" fill="none" xmlns="http://www.w3.org/2000/svg">
<mask id="mask0" mask-type="alpha" maskUnits="userSpaceOnUse" x="0" y="0" width="1251" height="234">
<rect width="1251" height="234" fill="#C4C4C4"/>
</mask>
<g mask="url(#mask0)">
<path d="M386.832 88.6172H376.48V116H375.426V88.6172H365.074V87.5625H386.832V88.6172ZM412.086 116H411.031V101.898H392.867V116H391.812V87.5625H392.867V100.844H411.031V87.5625H412.086V116ZM435.211 101.898H420.953V114.945H437.203V116H419.898V87.5625H437.203V88.6172H420.953V100.844H435.211V101.898ZM471.578 107.289C471.305 110.219 470.296 112.471 468.551 114.047C466.806 115.609 464.436 116.391 461.441 116.391C459.423 116.391 457.633 115.883 456.07 114.867C454.521 113.839 453.316 112.387 452.457 110.512C451.598 108.624 451.161 106.469 451.148 104.047V99.6523C451.148 97.2305 451.572 95.069 452.418 93.168C453.264 91.2539 454.469 89.776 456.031 88.7344C457.607 87.6927 459.41 87.1719 461.441 87.1719C464.41 87.1719 466.773 87.9531 468.531 89.5156C470.289 91.0781 471.305 93.3177 471.578 96.2344H470.523C470.224 93.6172 469.312 91.6315 467.789 90.2773C466.266 88.9102 464.15 88.2266 461.441 88.2266C458.681 88.2266 456.448 89.2682 454.742 91.3516C453.049 93.4349 452.203 96.2279 452.203 99.7305V103.91C452.203 106.15 452.581 108.135 453.336 109.867C454.091 111.586 455.172 112.927 456.578 113.891C457.997 114.854 459.618 115.336 461.441 115.336C464.163 115.336 466.285 114.665 467.809 113.324C469.345 111.983 470.25 109.971 470.523 107.289H471.578ZM498.316 103.91C498.316 106.371 497.874 108.552 496.988 110.453C496.116 112.341 494.866 113.806 493.238 114.848C491.611 115.876 489.736 116.391 487.613 116.391C484.41 116.391 481.819 115.251 479.84 112.973C477.861 110.694 476.871 107.621 476.871 103.754V99.6523C476.871 97.2044 477.307 95.0299 478.18 93.1289C479.065 91.2279 480.322 89.763 481.949 88.7344C483.59 87.6927 485.465 87.1719 487.574 87.1719C489.697 87.1719 491.572 87.6927 493.199 88.7344C494.84 89.763 496.103 91.2344 496.988 93.1484C497.874 95.0495 498.316 97.2174 498.316 99.6523V103.91ZM497.262 99.6133C497.262 96.1758 496.389 93.4219 494.645 91.3516C492.9 89.2682 490.543 88.2266 487.574 88.2266C484.645 88.2266 482.307 89.2617 480.562 91.332C478.818 93.3893 477.945 96.1953 477.945 99.75V103.91C477.945 106.176 478.336 108.181 479.117 109.926C479.911 111.658 481.038 112.992 482.496 113.93C483.954 114.867 485.66 115.336 487.613 115.336C490.582 115.336 492.932 114.301 494.664 112.23C496.396 110.16 497.262 107.335 497.262 103.754V99.6133ZM506.324 87.5625L518.023 114.457L529.762 87.5625H531.305V116H530.25V89.125L518.453 116H517.613L505.875 89.2617V116H504.82V87.5625H506.324ZM540.172 103.988V116H539.117V87.5625H548.004C550.908 87.5625 553.16 88.2982 554.762 89.7695C556.376 91.2279 557.184 93.2591 557.184 95.8633C557.184 98.4414 556.396 100.434 554.82 101.84C553.258 103.246 551.031 103.962 548.141 103.988H540.172ZM540.172 102.934H548.004C550.569 102.934 552.561 102.315 553.98 101.078C555.413 99.8411 556.129 98.1159 556.129 95.9023C556.129 93.6107 555.413 91.8268 553.98 90.5508C552.561 89.2617 550.569 88.6172 548.004 88.6172H540.172V102.934ZM582.281 87.5625V106.82C582.281 109.828 581.409 112.178 579.664 113.871C577.919 115.551 575.556 116.391 572.574 116.391C569.592 116.391 567.229 115.551 565.484 113.871C563.74 112.178 562.861 109.854 562.848 106.898V87.5625H563.902V106.781C563.902 109.411 564.69 111.495 566.266 113.031C567.854 114.568 569.957 115.336 572.574 115.336C575.191 115.336 577.288 114.568 578.863 113.031C580.439 111.495 581.227 109.405 581.227 106.762V87.5625H582.281ZM608.746 88.6172H598.395V116H597.34V88.6172H586.988V87.5625H608.746V88.6172ZM615.562 116H614.508V87.5625H615.562V116ZM644.293 103.91C644.293 106.371 643.85 108.552 642.965 110.453C642.092 112.341 640.842 113.806 639.215 114.848C637.587 115.876 635.712 116.391 633.59 116.391C630.387 116.391 627.796 115.251 625.816 112.973C623.837 110.694 622.848 107.621 622.848 103.754V99.6523C622.848 97.2044 623.284 95.0299 624.156 93.1289C625.042 91.2279 626.298 89.763 627.926 88.7344C629.566 87.6927 631.441 87.1719 633.551 87.1719C635.673 87.1719 637.548 87.6927 639.176 88.7344C640.816 89.763 642.079 91.2344 642.965 93.1484C643.85 95.0495 644.293 97.2174 644.293 99.6523V103.91ZM643.238 99.6133C643.238 96.1758 642.366 93.4219 640.621 91.3516C638.876 89.2682 636.52 88.2266 633.551 88.2266C630.621 88.2266 628.284 89.2617 626.539 91.332C624.794 93.3893 623.922 96.1953 623.922 99.75V103.91C623.922 106.176 624.312 108.181 625.094 109.926C625.888 111.658 627.014 112.992 628.473 113.93C629.931 114.867 631.637 115.336 633.59 115.336C636.559 115.336 638.909 114.301 640.641 112.23C642.372 110.16 643.238 107.335 643.238 103.754V99.6133ZM671.285 116H670.23L651.871 89.3594V116H650.797V87.5625H651.871L670.23 114.145V87.5625H671.285V116ZM694.449 107.504H680.523L677.359 116H676.207L686.852 87.5625H688.141L698.785 116H697.633L694.449 107.504ZM680.914 106.449H694.059L687.496 88.832L680.914 106.449ZM704.449 114.945H719.039V116H703.375V87.5625H704.449V114.945ZM734.684 114.945H749.273V116H733.609V87.5625H734.684V114.945ZM756.109 116H755.055V87.5625H756.109V116ZM766.207 87.5625L777.906 114.457L789.645 87.5625H791.188V116H790.133V89.125L778.336 116H777.496L765.758 89.2617V116H764.703V87.5625H766.207ZM800.836 116H799.781V87.5625H800.836V116ZM827.77 88.6172H817.418V116H816.363V88.6172H806.012V87.5625H827.77V88.6172ZM849.469 109.184C849.469 107.973 849.182 106.951 848.609 106.117C848.049 105.271 847.158 104.529 845.934 103.891C844.723 103.24 842.887 102.576 840.426 101.898C837.965 101.221 836.116 100.538 834.879 99.8477C833.655 99.1576 832.757 98.3568 832.184 97.4453C831.611 96.5339 831.324 95.4271 831.324 94.125C831.324 92.0547 832.197 90.3815 833.941 89.1055C835.686 87.8164 837.958 87.1719 840.758 87.1719C842.581 87.1719 844.215 87.5299 845.66 88.2461C847.118 88.9492 848.245 89.9453 849.039 91.2344C849.833 92.5104 850.23 93.9557 850.23 95.5703H849.176C849.176 93.4479 848.395 91.6966 846.832 90.3164C845.27 88.9232 843.245 88.2266 840.758 88.2266C838.258 88.2266 836.233 88.7865 834.684 89.9062C833.147 91.013 832.379 92.4062 832.379 94.0859C832.379 95.7917 833.049 97.1654 834.391 98.207C835.732 99.2487 837.945 100.173 841.031 100.98C844.117 101.775 846.376 102.699 847.809 103.754C849.632 105.095 850.543 106.892 850.543 109.145C850.543 110.577 850.139 111.846 849.332 112.953C848.525 114.047 847.379 114.893 845.895 115.492C844.41 116.091 842.743 116.391 840.895 116.391C838.837 116.391 836.988 116.052 835.348 115.375C833.707 114.685 832.47 113.708 831.637 112.445C830.816 111.182 830.406 109.691 830.406 107.973H831.461C831.461 110.303 832.333 112.113 834.078 113.402C835.823 114.691 838.095 115.336 840.895 115.336C843.382 115.336 845.432 114.77 847.047 113.637C848.661 112.491 849.469 111.007 849.469 109.184ZM885.816 103.91C885.816 106.371 885.374 108.552 884.488 110.453C883.616 112.341 882.366 113.806 880.738 114.848C879.111 115.876 877.236 116.391 875.113 116.391C871.91 116.391 869.319 115.251 867.34 112.973C865.361 110.694 864.371 107.621 864.371 103.754V99.6523C864.371 97.2044 864.807 95.0299 865.68 93.1289C866.565 91.2279 867.822 89.763 869.449 88.7344C871.09 87.6927 872.965 87.1719 875.074 87.1719C877.197 87.1719 879.072 87.6927 880.699 88.7344C882.34 89.763 883.603 91.2344 884.488 93.1484C885.374 95.0495 885.816 97.2174 885.816 99.6523V103.91ZM884.762 99.6133C884.762 96.1758 883.889 93.4219 882.145 91.3516C880.4 89.2682 878.043 88.2266 875.074 88.2266C872.145 88.2266 869.807 89.2617 868.062 91.332C866.318 93.3893 865.445 96.1953 865.445 99.75V103.91C865.445 106.176 865.836 108.181 866.617 109.926C867.411 111.658 868.538 112.992 869.996 113.93C871.454 114.867 873.16 115.336 875.113 115.336C878.082 115.336 880.432 114.301 882.164 112.23C883.896 110.16 884.762 107.335 884.762 103.754V99.6133ZM907.945 102.016H893.375V116H892.32V87.5625H909.938V88.6172H893.375V100.922H907.945V102.016ZM924.781 116V87.5625H932.652C934.853 87.5625 936.845 88.0833 938.629 89.125C940.413 90.1667 941.812 91.6315 942.828 93.5195C943.844 95.3945 944.365 97.4974 944.391 99.8281V103.52C944.391 105.889 943.889 108.025 942.887 109.926C941.897 111.827 940.51 113.311 938.727 114.379C936.943 115.447 934.951 115.987 932.75 116H924.781ZM925.836 88.6172V114.945H932.652C934.645 114.945 936.454 114.464 938.082 113.5C939.723 112.523 941.005 111.169 941.93 109.438C942.854 107.693 943.323 105.759 943.336 103.637V99.9844C943.336 97.862 942.88 95.9349 941.969 94.2031C941.07 92.4714 939.807 91.1172 938.18 90.1406C936.565 89.151 934.775 88.6432 932.809 88.6172H925.836ZM966.266 101.898H952.008V114.945H968.258V116H950.953V87.5625H968.258V88.6172H952.008V100.844H966.266V101.898ZM989.039 101.898H974.781V114.945H991.031V116H973.727V87.5625H991.031V88.6172H974.781V100.844H989.039V101.898ZM997.555 103.988V116H996.5V87.5625H1005.39C1008.29 87.5625 1010.54 88.2982 1012.14 89.7695C1013.76 91.2279 1014.57 93.2591 1014.57 95.8633C1014.57 98.4414 1013.78 100.434 1012.2 101.84C1010.64 103.246 1008.41 103.962 1005.52 103.988H997.555ZM997.555 102.934H1005.39C1007.95 102.934 1009.94 102.315 1011.36 101.078C1012.8 99.8411 1013.51 98.1159 1013.51 95.9023C1013.51 93.6107 1012.8 91.8268 1011.36 90.5508C1009.94 89.2617 1007.95 88.6172 1005.39 88.6172H997.555V102.934ZM1031.17 114.945H1045.76V116H1030.09V87.5625H1031.17V114.945ZM1066.07 101.898H1051.81V114.945H1068.06V116H1050.76V87.5625H1068.06V88.6172H1051.81V100.844H1066.07V101.898ZM1088.51 107.504H1074.59L1071.42 116H1070.27L1080.91 87.5625H1082.2L1092.85 116H1091.7L1088.51 107.504ZM1074.98 106.449H1088.12L1081.56 88.832L1074.98 106.449ZM1108.26 103.832H1098.39V116H1097.34V87.5625H1106.4C1109.25 87.5625 1111.52 88.2982 1113.2 89.7695C1114.89 91.2409 1115.74 93.2396 1115.74 95.7656C1115.74 97.7057 1115.13 99.4049 1113.92 100.863C1112.72 102.309 1111.19 103.207 1109.33 103.559L1116.93 115.727V116H1115.82L1108.26 103.832ZM1098.39 102.777H1107.36C1109.55 102.777 1111.31 102.113 1112.65 100.785C1114.01 99.457 1114.68 97.7839 1114.68 95.7656C1114.68 93.5521 1113.93 91.8073 1112.44 90.5312C1110.95 89.2552 1108.92 88.6172 1106.32 88.6172H1098.39V102.777ZM1144.1 116H1143.04L1124.68 89.3594V116H1123.61V87.5625H1124.68L1143.04 114.145V87.5625H1144.1V116ZM1153.77 116H1152.71V87.5625H1153.77V116ZM1182.85 116H1181.79L1163.43 89.3594V116H1162.36V87.5625H1163.43L1181.79 114.145V87.5625H1182.85V116ZM1210.72 112.953C1210 113.943 1208.75 114.763 1206.95 115.414C1205.15 116.065 1203.17 116.391 1201.01 116.391C1198.9 116.391 1197.02 115.876 1195.37 114.848C1193.71 113.819 1192.42 112.367 1191.48 110.492C1190.56 108.617 1190.08 106.495 1190.05 104.125V99.2422C1190.05 96.9115 1190.5 94.8216 1191.4 92.9727C1192.3 91.1237 1193.56 89.6979 1195.19 88.6953C1196.82 87.6797 1198.65 87.1719 1200.68 87.1719C1203.51 87.1719 1205.8 87.8945 1207.57 89.3398C1209.36 90.7852 1210.39 92.7578 1210.68 95.2578H1209.62C1209.27 92.9922 1208.33 91.2539 1206.79 90.043C1205.26 88.832 1203.22 88.2266 1200.68 88.2266C1197.82 88.2266 1195.5 89.2487 1193.75 91.293C1191.99 93.3372 1191.11 96.026 1191.11 99.3594V103.891C1191.11 106.117 1191.52 108.103 1192.34 109.848C1193.17 111.592 1194.34 112.947 1195.84 113.91C1197.35 114.861 1199.07 115.336 1201.01 115.336C1202.91 115.336 1204.68 115.056 1206.3 114.496C1207.93 113.936 1209.05 113.259 1209.66 112.465V104.184H1200.97V103.109H1210.72V112.953Z" fill="#201D49"/>
<path d="M94.1202 52.6594L55.3224 71.938L37.4754 89.7336L32.0437 120.876L46.7869 143.862L73.9453 148.311L104.984 152.018L144.557 163.882L177.148 160.174L213.617 180.936L249.311 202.439L243.88 163.882L271.038 156.467L287.333 130.515L307.508 103.822L287.333 71.938L253.191 46.7276L222.153 31.8979L187.235 26.7075L144.557 35.6053H121.279L94.1202 52.6594Z" stroke="black"/>
<path d="M245.82 163.882L256.683 142.379" stroke="black"/>
<path d="M222.541 32.6392L227.973 73.4207L244.268 95.6652L248.148 119.393L214.781 143.862" stroke="black"/>
<path d="M246.596 119.393L275.306 111.236L306.344 103.822" stroke="black"/>
<path d="M103.044 152.76L117.011 132.74L151.153 115.685L196.158 95.6654L202.366 63.7816L179.863 48.952L186.071 27.449" stroke="black"/>
<path d="M34.7596 119.393L58.0383 124.583L100.716 100.856L118.563 83.0601" stroke="black"/>
<path d="M152.705 114.944L160.465 132.739" stroke="black"/>
<path d="M190.727 95.6653L211.678 125.325" stroke="black"/>
<path d="M120.891 36.3467L147.273 69.7134L137.186 93.4409" stroke="black"/>
<path d="M38.6393 88.2504L82.0929 84.543" stroke="black"/>
<path d="M89.0765 55.6252L105.372 63.7816" stroke="black"/>
<path d="M176.76 161.657L186.071 142.379" stroke="black"/>
<ellipse cx="32.8197" cy="120.134" rx="5.81967" ry="5.56112" fill="#524F88"/>
<path d="M126.986 37.8297C126.986 40.6037 124.626 42.8908 121.667 42.8908C118.707 42.8908 116.347 40.6037 116.347 37.8297C116.347 35.0557 118.707 32.7686 121.667 32.7686C124.626 32.7686 126.986 35.0557 126.986 37.8297Z" fill="#E4F2F1" stroke="#69AAA4"/>
<ellipse cx="305.18" cy="103.451" rx="5.81967" ry="5.56112" fill="#C15B9A"/>
<path d="M197.21 95.2945C197.21 98.0685 194.85 100.356 191.891 100.356C188.931 100.356 186.571 98.0685 186.571 95.2945C186.571 92.5205 188.931 90.2334 191.891 90.2334C194.85 90.2334 197.21 92.5205 197.21 95.2945Z" fill="#E4F2F1" stroke="#69AAA4"/>
<ellipse cx="146.109" cy="70.0841" rx="5.81967" ry="5.56112" fill="#524F88"/>
<ellipse cx="117.787" cy="131.256" rx="5.81967" ry="5.56112" fill="#524F88"/>
<ellipse cx="246.208" cy="119.022" rx="5.81967" ry="5.56112" fill="#524F88"/>
<ellipse cx="250.087" cy="202.439" rx="5.81967" ry="5.56112" fill="#524F88"/>
<ellipse cx="142.23" cy="163.14" rx="5.81967" ry="5.56112" fill="#C15B9A"/>
<path d="M43.571 89.9189C43.571 92.1811 41.6452 94.0532 39.2213 94.0532C36.7974 94.0532 34.8716 92.1811 34.8716 89.9189C34.8716 87.6568 36.7974 85.7847 39.2213 85.7847C41.6452 85.7847 43.571 87.6568 43.571 89.9189Z" fill="#E4F2F1" stroke="#69AAA4"/>
<ellipse cx="176.178" cy="162.213" rx="4.84972" ry="4.63427" fill="#69AAA4"/>
<ellipse cx="102.85" cy="152.945" rx="4.84973" ry="4.63427" fill="#69AAA4"/>
<path d="M274.806 157.765C274.806 160.027 272.88 161.899 270.456 161.899C268.032 161.899 266.107 160.027 266.107 157.765C266.107 155.503 268.032 153.63 270.456 153.63C272.88 153.63 274.806 155.503 274.806 157.765Z" fill="#E4F2F1" stroke="#69AAA4"/>
<path d="M279.074 111.051C279.074 113.313 277.148 115.185 274.724 115.185C272.3 115.185 270.374 113.313 270.374 111.051C270.374 108.789 272.3 106.917 274.724 106.917C277.148 106.917 279.074 108.789 279.074 111.051Z" fill="#E4F2F1" stroke="#69AAA4"/>
<ellipse cx="284.424" cy="69.1572" rx="4.84972" ry="4.63427" fill="#668B88"/>
<ellipse cx="49.3088" cy="144.789" rx="4.84973" ry="4.63427" fill="#69AAA4"/>
<ellipse cx="222.735" cy="33.1953" rx="4.84972" ry="4.63427" fill="#69AAA4"/>
<ellipse cx="203.724" cy="65.0791" rx="4.84973" ry="4.63427" fill="#524F88"/>
<ellipse cx="59.0082" cy="124.769" rx="4.84972" ry="4.63427" fill="#69AAA4"/>
<path d="M101.768 102.524C101.768 104.786 99.842 106.658 97.418 106.658C94.9941 106.658 93.0683 104.786 93.0683 102.524C93.0683 100.262 94.9941 98.3899 97.418 98.3899C99.842 98.3899 101.768 100.262 101.768 102.524Z" fill="#E4F2F1" stroke="#69AAA4"/>
<ellipse cx="79.571" cy="86.5823" rx="4.84973" ry="4.63427" fill="#69AAA4"/>
<ellipse cx="137.38" cy="94.7385" rx="4.84972" ry="4.63427" fill="#69AAA4"/>
<ellipse cx="152.123" cy="114.759" rx="4.84972" ry="4.63427" fill="#69AAA4"/>
<ellipse cx="179.281" cy="50.2495" rx="4.84972" ry="4.63427" fill="#69AAA4"/>
<ellipse cx="245.238" cy="96.2214" rx="4.84972" ry="4.63427" fill="#69AAA4"/>
<ellipse cx="227.391" cy="73.6062" rx="4.84973" ry="4.63427" fill="#C15B9A"/>
<path d="M261.727 142.935C261.727 145.494 259.555 147.569 256.877 147.569C254.199 147.569 252.027 145.494 252.027 142.935C252.027 140.375 254.199 138.301 256.877 138.301C259.555 138.301 261.727 140.375 261.727 142.935Z" fill="#69AAA4"/>
<ellipse cx="185.877" cy="27.6343" rx="4.84972" ry="4.63427" fill="#C15B9A"/>
<ellipse cx="58.6202" cy="69.1572" rx="4.84973" ry="4.63427" fill="#C15B9A"/>
<ellipse cx="76.6612" cy="149.423" rx="1.93989" ry="1.85371" fill="#C15B9A"/>
<ellipse cx="245.432" cy="164.994" rx="1.93989" ry="1.85371" fill="#69AAA4"/>
<ellipse cx="286.557" cy="132.369" rx="1.93989" ry="1.85371" fill="#524F88"/>
<ellipse cx="211.678" cy="179.824" rx="1.93989" ry="1.85371" fill="#C15B9A"/>
<ellipse cx="214.005" cy="144.603" rx="1.93989" ry="1.85371" fill="#C15B9A"/>
<ellipse cx="105.372" cy="64.5231" rx="1.93989" ry="1.85371" fill="#524F88"/>
<ellipse cx="116.623" cy="84.5432" rx="1.93989" ry="1.85371" fill="#C15B9A"/>
<ellipse cx="186.071" cy="144.603" rx="1.93989" ry="1.85371" fill="#524F88"/>
<ellipse cx="160.464" cy="134.964" rx="1.93989" ry="1.85371" fill="#C15B9A"/>
<ellipse cx="212.066" cy="123.842" rx="1.93989" ry="1.85371" fill="#69AAA4"/>
<ellipse cx="253.967" cy="48.2104" rx="1.93989" ry="1.85371" fill="#C15B9A"/>
<ellipse cx="148.049" cy="35.976" rx="1.93989" ry="1.85371" fill="#524F88"/>
<ellipse cx="88.3005" cy="55.996" rx="1.93989" ry="1.85371" fill="#69AAA4"/>
</g>
</svg>
