<svg width="878" height="410" viewBox="0 0 878 410" fill="none" xmlns="http://www.w3.org/2000/svg">
<mask id="mask0" mask-type="alpha" maskUnits="userSpaceOnUse" x="171" y="18" width="478" height="333">
<rect x="171.612" y="18.5839" width="477.371" height="332.181" fill="white"/>
</mask>
<g mask="url(#mask0)">
<path d="M299.111 90.5948L238.685 120.793L210.888 148.668L202.429 197.45L225.391 233.456L267.69 240.425L316.031 246.232L377.666 264.816L428.425 259.008L485.226 291.53L540.818 325.212L532.358 264.816L574.657 253.201L600.036 212.549L631.458 170.736L600.036 120.793L546.861 81.303L498.52 58.0735L444.135 49.9432L377.666 63.8809H341.41L299.111 90.5948Z" stroke="white"/>
<path d="M535.38 264.816L552.3 231.133" stroke="white"/>
<path d="M499.124 59.2352L507.584 123.116L532.963 157.96L539.006 195.128L487.039 233.456" stroke="white"/>
<path d="M536.589 195.127L581.305 182.351L629.647 170.736" stroke="white"/>
<path d="M313.01 247.394L334.764 216.034L387.939 189.32L458.034 157.96L467.703 108.017L432.655 84.7874L442.323 51.1047" stroke="white"/>
<path d="M206.659 195.127L242.915 203.258L309.384 166.09L337.18 138.215" stroke="white"/>
<path d="M390.356 188.159L402.442 216.034" stroke="white"/>
<path d="M449.574 157.96L482.204 204.419" stroke="white"/>
<path d="M340.806 65.0422L381.896 117.309L366.185 154.476" stroke="white"/>
<path d="M212.703 146.346L280.381 140.538" stroke="white"/>
<path d="M291.257 95.2408L316.636 108.017" stroke="white"/>
<path d="M427.822 261.331L442.324 231.133" stroke="white"/>
<ellipse cx="203.639" cy="196.289" rx="9.06401" ry="8.71104" fill="#524F88"/>
<path d="M350.58 67.3655C350.58 71.8818 346.764 75.5765 342.016 75.5765C337.267 75.5765 333.452 71.8818 333.452 67.3655C333.452 62.8492 337.267 59.1544 342.016 59.1544C346.764 59.1544 350.58 62.8492 350.58 67.3655Z" fill="#E4F2F1" stroke="#69AAA4"/>
<ellipse cx="627.833" cy="170.156" rx="9.06396" ry="8.71105" fill="#C15B9A"/>
<path d="M459.952 157.379C459.952 161.896 456.137 165.59 451.388 165.59C446.639 165.59 442.824 161.896 442.824 157.379C442.824 152.863 446.639 149.168 451.388 149.168C456.137 149.168 459.952 152.863 459.952 157.379Z" fill="#E4F2F1" stroke="#69AAA4"/>
<ellipse cx="380.084" cy="117.89" rx="9.064" ry="8.71109" fill="#524F88"/>
<ellipse cx="335.972" cy="213.711" rx="9.06401" ry="8.71105" fill="#524F88"/>
<ellipse cx="535.984" cy="194.546" rx="9.06403" ry="8.71103" fill="#524F88"/>
<ellipse cx="542.028" cy="325.212" rx="9.06403" ry="8.71106" fill="#524F88"/>
<ellipse cx="374.042" cy="263.654" rx="9.06398" ry="8.71121" fill="#C15B9A"/>
<path d="M220.661 148.959C220.661 152.674 217.522 155.718 213.608 155.718C209.693 155.718 206.554 152.674 206.554 148.959C206.554 145.245 209.693 142.2 213.608 142.2C217.522 142.2 220.661 145.245 220.661 148.959Z" fill="#E4F2F1" stroke="#69AAA4"/>
<ellipse cx="426.915" cy="262.202" rx="7.55333" ry="7.25919" fill="#69AAA4"/>
<ellipse cx="312.708" cy="247.684" rx="7.55336" ry="7.25906" fill="#69AAA4"/>
<path d="M580.805 255.234C580.805 258.949 577.666 261.993 573.752 261.993C569.838 261.993 566.699 258.949 566.699 255.234C566.699 251.52 569.838 248.475 573.752 248.475C577.666 248.475 580.805 251.52 580.805 255.234Z" fill="#E4F2F1" stroke="#69AAA4"/>
<path d="M587.452 182.061C587.452 185.776 584.313 188.82 580.398 188.82C576.484 188.82 573.345 185.776 573.345 182.061C573.345 178.347 576.484 175.302 580.398 175.302C584.313 175.302 587.452 178.347 587.452 182.061Z" fill="#E4F2F1" stroke="#69AAA4"/>
<ellipse cx="595.505" cy="116.438" rx="7.55328" ry="7.25921" fill="#668B88"/>
<ellipse cx="229.319" cy="234.908" rx="7.55339" ry="7.25922" fill="#69AAA4"/>
<ellipse cx="499.427" cy="60.106" rx="7.55328" ry="7.25917" fill="#69AAA4"/>
<ellipse cx="469.818" cy="110.05" rx="7.55351" ry="7.25921" fill="#524F88"/>
<ellipse cx="244.426" cy="203.548" rx="7.55332" ry="7.25912" fill="#69AAA4"/>
<path d="M311.302 168.704C311.302 172.418 308.163 175.463 304.249 175.463C300.335 175.463 297.196 172.418 297.196 168.704C297.196 164.989 300.335 161.945 304.249 161.945C308.163 161.945 311.302 164.989 311.302 168.704Z" fill="#E4F2F1" stroke="#69AAA4"/>
<ellipse cx="276.452" cy="143.732" rx="7.55334" ry="7.2592" fill="#69AAA4"/>
<ellipse cx="366.487" cy="156.508" rx="7.55338" ry="7.25921" fill="#69AAA4"/>
<ellipse cx="389.45" cy="187.868" rx="7.55334" ry="7.25919" fill="#69AAA4"/>
<ellipse cx="431.75" cy="86.8204" rx="7.55331" ry="7.25921" fill="#69AAA4"/>
<ellipse cx="534.474" cy="158.832" rx="7.55334" ry="7.25922" fill="#69AAA4"/>
<ellipse cx="506.678" cy="123.407" rx="7.55333" ry="7.25922" fill="#C15B9A"/>
<path d="M560.155 232.004C560.155 236.014 556.773 239.264 552.602 239.264C548.43 239.264 545.048 236.014 545.048 232.004C545.048 227.995 548.43 224.745 552.602 224.745C556.773 224.745 560.155 227.995 560.155 232.004Z" fill="#69AAA4"/>
<ellipse cx="442.021" cy="51.3954" rx="7.55318" ry="7.25921" fill="#C15B9A"/>
<ellipse cx="243.821" cy="116.438" rx="7.55341" ry="7.25921" fill="#C15B9A"/>
<ellipse cx="271.92" cy="242.167" rx="3.02133" ry="2.90362" fill="#C15B9A"/>
<ellipse cx="534.776" cy="266.558" rx="3.02133" ry="2.90359" fill="#69AAA4"/>
<ellipse cx="598.828" cy="215.453" rx="3.02133" ry="2.90361" fill="#524F88"/>
<ellipse cx="482.204" cy="289.788" rx="3.02135" ry="2.90361" fill="#C15B9A"/>
<ellipse cx="485.83" cy="234.617" rx="3.02136" ry="2.90369" fill="#C15B9A"/>
<ellipse cx="316.636" cy="109.179" rx="3.02135" ry="2.90368" fill="#524F88"/>
<ellipse cx="334.159" cy="140.538" rx="3.02132" ry="2.90372" fill="#C15B9A"/>
<ellipse cx="442.323" cy="234.617" rx="3.02138" ry="2.90369" fill="#524F88"/>
<ellipse cx="402.441" cy="219.518" rx="3.02136" ry="2.90369" fill="#C15B9A"/>
<ellipse cx="482.809" cy="202.097" rx="3.02136" ry="2.90368" fill="#69AAA4"/>
<ellipse cx="548.07" cy="83.6262" rx="3.02133" ry="2.90368" fill="#C15B9A"/>
<ellipse cx="383.106" cy="64.4616" rx="3.02133" ry="2.90366" fill="#524F88"/>
<ellipse cx="290.048" cy="95.8216" rx="3.02132" ry="2.90368" fill="#69AAA4"/>
</g>
</svg>

